@startuml

interface Channel
Channel <|- AbstractChannel

abstract class AbstractChannel
abstract class AbstractNioChannel

AbstractChannel <|- AbstractNioChannel


abstract class  AbstractNioMessageChannel
AbstractNioChannel <|-- AbstractNioMessageChannel

class NioServerSocketChannel
AbstractNioMessageChannel <|-- NioServerSocketChannel

abstract class AbstractNioByteChannel
AbstractNioChannel <|- AbstractNioByteChannel

class NioSocketChannel
AbstractNioByteChannel <|- NioSocketChannel
@enduml